<svg style="position: absolute; width: 0; height: 0; overflow: hidden;" version="1.1" xmlns="http://www.w3.org/2000/svg" xmlns:xlink="http://www.w3.org/1999/xlink">
<defs>
<symbol id="icon-aboutus" viewBox="0 0 32 32">
<title>aboutus</title>
<path d="M31.356 28.186c-1.083-5.792-5.254-10.393-10.706-12.078l-0.11-0.029c2.494-1.55 4.13-4.275 4.13-7.382 0-4.784-3.878-8.662-8.662-8.662s-8.662 3.878-8.662 8.662c0 4.784 3.878 8.662 8.662 8.662 0.004 0 0.008 0 0.012 0h-0.001c0.004 0 0.010 0 0.015 0 6.655 0 12.194 4.777 13.375 11.088l0.013 0.084c0.012 0.066 0.020 0.142 0.020 0.22 0 0.304-0.11 0.583-0.292 0.799l0.002-0.002c-0.232 0.278-0.579 0.453-0.967 0.453-0 0-0 0-0 0h-24.333c-0.002 0-0.004 0-0.006 0-0.38 0-0.72-0.174-0.945-0.446l-0.002-0.002c-0.186-0.222-0.298-0.511-0.298-0.826 0-0.084 0.008-0.167 0.023-0.246l-0.001 0.008c0.813-4.18 3.431-7.623 6.992-9.538l0.073-0.036c0.314-0.168 0.524-0.493 0.524-0.868 0-0.542-0.439-0.981-0.981-0.981-0.167 0-0.325 0.042-0.462 0.116l0.005-0.003c-4.158 2.233-7.153 6.171-8.066 10.854l-0.016 0.099c-0.035 0.179-0.055 0.385-0.055 0.596 0 0.796 0.286 1.525 0.761 2.090l-0.004-0.005c0.59 0.707 1.472 1.154 2.458 1.154 0.001 0 0.002 0 0.004 0h24.333c0.001 0 0.002 0 0.003 0 1.775 0 3.215-1.439 3.215-3.215 0-0.201-0.018-0.398-0.054-0.588l0.003 0.020zM9.302 8.68c0-3.711 3.009-6.72 6.72-6.72s6.72 3.009 6.72 6.72c0 3.711-3.008 6.719-6.718 6.72h-0c-3.71-0.003-6.718-3.010-6.722-6.72v-0z"></path>
</symbol>
<symbol id="icon-banben" viewBox="0 0 32 32">
<title>banben</title>
<path d="M15.969 31.998c-4.413 0-8.218-1.567-11.311-4.66-3.135-3.133-4.658-6.833-4.658-11.315s1.524-8.182 4.66-11.311c2.363-2.472 5.56-4.128 9.138-4.516l0.066-0.006c0.605-0.062 1.307-0.098 2.018-0.098s1.413 0.036 2.106 0.105l-0.087-0.007c1.497 0.176 2.857 0.5 4.152 0.964l-0.13-0.041c0.474 0.178 0.804 0.627 0.804 1.153 0 0.678-0.55 1.228-1.228 1.228-0.152 0-0.298-0.028-0.432-0.078l0.008 0.003c-0.959-0.345-2.086-0.62-3.251-0.778l-0.087-0.010c-0.545-0.056-1.178-0.089-1.818-0.089s-1.273 0.032-1.897 0.095l0.079-0.006c-3.045 0.338-5.714 1.729-7.681 3.795l-0.005 0.005c-2.669 2.682-3.958 5.804-3.958 9.591s1.289 6.927 3.942 9.578 5.782 3.94 9.573 3.94c3.675 0 6.811-1.295 9.593-3.958 2.624-2.744 3.925-5.88 3.925-9.56-0.014-1.64-0.295-3.21-0.802-4.674l0.031 0.103c-0.1-0.211-0.182-0.42-0.265-0.622-0.073-0.197-0.152-0.364-0.245-0.523l0.008 0.016c-0.025-0.038-0.051-0.082-0.075-0.129l-0.004-0.008s-0.624-1.018-2.233-1.038h-0.020c-1.455 0-1.893 0.685-2.062 0.945l-0.031 0.044-5.605 11.818c-0.565 1.227-1.32 1.871-2.235 1.898s-1.736-0.587-2.416-1.831l-5.562-11.989c-0.080-0.159-0.127-0.346-0.127-0.544 0-0.679 0.55-1.229 1.229-1.229 0.501 0 0.933 0.3 1.124 0.731l0.003 0.008 5.527 11.916c0.044 0.080 0.085 0.149 0.124 0.209q0.056-0.102 0.104-0.207l5.658-11.927c0.042-0.087 0.089-0.161 0.142-0.23l-0.002 0.003c1.14-1.729 2.953-2.062 4.169-2.071 2.485 0.031 3.918 1.493 4.364 2.327 0.16 0.259 0.306 0.559 0.423 0.873l0.012 0.036c0.065 0.164 0.133 0.336 0.216 0.509 0.023 0.045 0.046 0.098 0.065 0.153l0.002 0.008c0.574 1.614 0.913 3.476 0.931 5.415l0 0.008c0 4.278-1.562 8.076-4.642 11.291-3.251 3.116-7.051 4.678-11.327 4.678z"></path>
</symbol>
<symbol id="icon-chuifeng" viewBox="0 0 32 32">
<title>chuifeng</title>
<path d="M1.776 8.765c-0.119 0.001-0.216 0.095-0.222 0.213l-0 0.001v5.892c0.004 0.12 0.101 0.216 0.222 0.217h0l1.862-0.726v-4.875zM25.26 10.966h-6.234c-0.004 0-0.009 0-0.014 0-0.564 0-1.023-0.453-1.033-1.015v-0.678c0.009-0.563 0.468-1.016 1.033-1.016 0.005 0 0.010 0 0.014 0h6.233c0.005-0 0.011-0 0.017-0 0.564 0 1.023 0.453 1.033 1.015v0.678c-0.015 0.564-0.476 1.016-1.043 1.016-0.001 0-0.003 0-0.004 0h0zM19.026 9.148c-0.081 0.002-0.146 0.065-0.151 0.145l-0 0v0.677c0.005 0.080 0.070 0.144 0.151 0.146h6.234c0.081-0.002 0.146-0.065 0.151-0.145l0-0v-0.677c-0.005-0.080-0.070-0.144-0.151-0.146h-6.234zM21.565 27.396c-0.010 0-0.022 0-0.034 0-0.721 0-1.308-0.574-1.329-1.29l-0-0.002s0-0.014 0-0.020v-7.138c-2.358-0.038-4.53-0.801-6.312-2.075l0.034 0.023h-8.376c-0.011 0-0.025 0-0.039 0-0.983 0-1.784-0.776-1.824-1.749l-0-0.004v-6.502c0.020-1.035 0.834-1.873 1.857-1.93l0.005-0h8.242c2.117-1.285 4.676-2.046 7.413-2.046 0.051 0 0.102 0 0.153 0.001l-0.008-0c0.064-0.001 0.14-0.002 0.215-0.002 2.655 0 5.132 0.762 7.225 2.080l-0.056-0.033c2.062 1.355 3.197 3.188 3.197 5.142-0.049 1.644-0.791 3.104-1.944 4.107l-0.007 0.006c-1.174 1.060-2.59 1.874-4.155 2.35l-0.078 0.020v7.744c0 0.006 0 0.013 0 0.020 0 0.706-0.566 1.279-1.269 1.292l-0.001 0h-2.912zM21.533 26.076c0.004 0.001 0.008 0.002 0.012 0.002s0.008-0.001 0.012-0.002l-0 0h2.848s-0.015 0-0.015 0v-8.735l0.508-0.13c3.401-0.919 5.687-3.071 5.687-5.357 0-1.505-0.919-2.941-2.601-4.045-1.81-1.131-4.009-1.803-6.365-1.803-0.090 0-0.18 0.001-0.27 0.003l0.013-0c-2.673 0-5.203 0.709-6.942 1.961l-0.169 0.124h-8.699c-0.245 0.031-0.434 0.238-0.434 0.489 0 0.015 0.001 0.030 0.002 0.044l-0-0.002v6.508c-0.001 0.010-0.001 0.022-0.001 0.033 0 0.214 0.165 0.389 0.374 0.407l0.001 0h8.828l0.169 0.124c1.624 1.216 3.672 1.947 5.89 1.947 0.060 0 0.119-0.001 0.178-0.002l-0.009 0c0.003-0 0.006-0 0.008-0 0.067 0 0.133 0.006 0.197 0.016l-0.007-0.001c0.015 0.002 0.031 0.003 0.048 0.003s0.034-0.001 0.050-0.003l-0.002 0h0.689l-0.003 8.422zM1.226 16.532c-1.238 0-1.217-0.543-1.217-1.693v-5.665c0-1.233-0.078-1.693 1.016-1.796l2.677 1.136v6.739z"></path>
</symbol>
<symbol id="icon-clean" viewBox="0 0 26 32">
<title>clean</title>
<path d="M23.158 5.456h-4.851c0.032-0.121 0.050-0.259 0.050-0.402 0-0 0-0.001 0-0.001v0-3.403c0-0.911-0.739-1.65-1.65-1.65v0h-2.87c-0 0-0.001 0-0.001 0-0.857 0-1.561 0.653-1.642 1.489l-0.001 0.007h-9.061c-0.445 0-1.869 0.904-1.869 0.904l0.083 1.166s1.338-0.826 1.778-0.826h9.061v2.31c0 0 0 0.001 0 0.001 0 0.143 0.018 0.281 0.052 0.413l-0.002-0.011h-4.109c-1.599 0-2.896 1.297-2.896 2.896v20.754c0 1.599 1.297 2.896 2.896 2.896v0h15.040c1.599 0 2.896-1.297 2.896-2.896v0-20.752c0-1.599-1.297-2.896-2.896-2.896v0zM13.507 2.755c0-0.712 0.414-1.29 0.925-1.29h1.6c0.51 0 0.925 0.578 0.925 1.29v2.658c0 0.014 0 0.029 0 0.042h-3.45c0-0.014 0-0.029 0-0.042v-2.658zM24.734 27.84c0 0.009 0 0.019 0 0.029 0 1.39-1.121 2.519-2.508 2.531h-13.022c-1.388-0.013-2.509-1.141-2.509-2.531 0-0.010 0-0.020 0-0.030v0.002-18.293c-0-0.009-0-0.019-0-0.029 0-1.39 1.121-2.519 2.508-2.531h13.022c1.388 0.013 2.509 1.141 2.509 2.531 0 0.010-0 0.020-0 0.030v-0.002 18.293z"></path>
<path d="M8.162 12.494c-0.284 0-0.514 0.23-0.514 0.514v0 7.406c0 0.284 0.23 0.514 0.514 0.514s0.514-0.23 0.514-0.514v0-7.406c0-0.284-0.23-0.514-0.514-0.514v0zM8.162 21.806c-0.283 0-0.514 0.112-0.514 0.25v3.608c0 0.138 0.23 0.25 0.514 0.25s0.514-0.112 0.514-0.25v-3.606c0-0.138-0.23-0.25-0.514-0.25z"></path>
<path d="M0 5.861c0 0.738 0.227 1.339 0.515 1.339s0.512-0.602 0.512-1.339-0.23-1.336-0.515-1.336-0.512 0.595-0.512 1.336z"></path>
</symbol>
<symbol id="icon-clock" viewBox="0 0 32 32">
<title>clock</title>
<path d="M16 0c-8.837 0-16 7.163-16 16s7.163 16 16 16c8.837 0 16-7.163 16-16v0c0-8.837-7.163-16-16-16v0zM16 30.545c-8.032-0.001-14.543-6.513-14.543-14.545s6.512-14.545 14.545-14.545 14.545 6.512 14.545 14.545v0c-0.001 8.033-6.513 14.545-14.547 14.545v0zM24 16h-7.273v-9.455c-0.026-0.38-0.341-0.678-0.725-0.678s-0.699 0.298-0.725 0.676l-0 0.002v10.182c0.003 0.398 0.325 0.721 0.723 0.723h8c0.014 0.001 0.031 0.002 0.048 0.002 0.401 0 0.727-0.325 0.727-0.727s-0.325-0.727-0.727-0.727c-0.017 0-0.034 0.001-0.051 0.002l0.002-0z"></path>
</symbol>
<symbol id="icon-del" viewBox="0 0 32 32">
<title>del</title>
<path d="M30.777 5.701h-5.685v-2.317c0-1.878-1.536-3.301-3.408-3.301h-11.428c-1.883 0-3.431 1.421-3.431 3.301v2.317h-5.678c-0.601 0-1.089 0.488-1.089 1.089s0.488 1.089 1.089 1.089h29.631c0.601 0 1.089-0.488 1.089-1.089s-0.488-1.089-1.089-1.089v0zM20.508 23.811v-12.485c-0.025-0.635-0.545-1.14-1.184-1.14s-1.159 0.505-1.184 1.138l-0 0.002v12.483c0.025 0.635 0.545 1.14 1.184 1.14s1.159-0.505 1.184-1.138l0-0.002zM13.589 23.811v-12.485c0.001-0.018 0.002-0.039 0.002-0.060 0-0.602-0.488-1.091-1.091-1.091s-1.091 0.488-1.091 1.091c0 0.021 0.001 0.042 0.002 0.063l-0-0.003v12.483c-0.001 0.018-0.002 0.039-0.002 0.060 0 0.602 0.488 1.091 1.091 1.091s1.091-0.488 1.091-1.091c0-0.021-0.001-0.042-0.002-0.063l0 0.003zM26.279 10.222c-0.004-0-0.008-0-0.012-0-0.635 0-1.152 0.504-1.172 1.134l-0 0.002v16.992c-0.008 0.62-0.513 1.119-1.134 1.119-0.006 0-0.012-0-0.018-0h-15.959c-0.005 0-0.011 0-0.017 0-0.623 0-1.129-0.499-1.141-1.118l-0-0.001v-17.040c0.001-0.018 0.002-0.039 0.002-0.060 0-0.602-0.488-1.091-1.091-1.091s-1.091 0.488-1.091 1.091c0 0.021 0.001 0.042 0.002 0.063l-0-0.003v17.035c0 1.878 1.453 3.518 3.339 3.518h15.961c1.885 0 3.518-1.637 3.518-3.518v-16.99c-0.028-0.631-0.546-1.133-1.182-1.133-0.002 0-0.004 0-0.006 0h0zM22.723 5.698h-13.685v-2.314c0-0.628 0.591-1.126 1.218-1.126h11.426c0.625 0 1.037 0.489 1.037 1.126v2.317z"></path>
</symbol>
<symbol id="icon-del2" viewBox="0 0 32 32">
<title>del2</title>
<path d="M16.007 0c-8.832 0.007-15.989 7.167-15.989 16 0 8.837 7.163 16 16 16 3.816 0 7.32-1.336 10.070-3.566l-0.030 0.023c0.113-0.082 0.186-0.214 0.186-0.363 0-0.247-0.2-0.447-0.447-0.447-0.117 0-0.224 0.045-0.304 0.119l0-0c-2.633 2.175-6.042 3.495-9.76 3.495-8.492 0-15.377-6.884-15.377-15.377s6.884-15.377 15.377-15.377c8.492 0 15.377 6.884 15.377 15.377 0 3.786-1.368 7.252-3.637 9.931l0.019-0.022c-0.068 0.079-0.109 0.182-0.109 0.296 0 0.251 0.204 0.455 0.455 0.455 0.138 0 0.262-0.061 0.345-0.159l0-0.001c2.382-2.776 3.832-6.413 3.832-10.388 0-8.835-7.162-15.996-15.996-15.996-0.004 0-0.008 0-0.013 0h0.001z"></path>
<path d="M22.917 9.145c-0.082-0.082-0.195-0.132-0.321-0.132s-0.238 0.051-0.321 0.132v0l-6.47 6.47-6.468-6.47c-0.082-0.082-0.195-0.133-0.321-0.133-0.25 0-0.453 0.203-0.453 0.453 0 0.125 0.051 0.239 0.133 0.321l6.468 6.47-6.47 6.468c-0.082 0.082-0.132 0.195-0.132 0.321s0.051 0.238 0.132 0.321v0c0.078 0.085 0.19 0.139 0.314 0.139s0.236-0.053 0.314-0.138l0-0 6.47-6.47 6.47 6.47c0.078 0.085 0.19 0.139 0.314 0.139s0.236-0.053 0.314-0.138l0-0c0.082-0.082 0.132-0.195 0.132-0.321s-0.051-0.238-0.132-0.321v0l-6.472-6.468 6.47-6.47c0.095-0.080 0.155-0.2 0.155-0.333 0-0.121-0.049-0.23-0.128-0.308l-0-0z"></path>
</symbol>
<symbol id="icon-dianping2" viewBox="0 0 31 32">
<title>dianping2</title>
<path d="M29.748 13.965c-0.551 0.014-0.993 0.464-0.993 1.018 0 0.008 0 0.016 0 0.024l-0-0.001v10.849c0 0.007 0 0.015 0 0.023 0 0.553-0.441 1.004-0.991 1.018l-0.001 0h-8.497l-0.304 0.416c-1.121 1.585-2.304 2.624-3.152 2.624s-2.033-1.039-3.154-2.624l-0.304-0.416h-9.376c-0.551-0.014-0.993-0.464-0.993-1.018 0-0.008 0-0.016 0-0.024l-0 0.001v-19.426c-0-0.007-0-0.015-0-0.023 0-0.553 0.441-1.004 0.991-1.018l0.001-0h7.279c0.551-0.014 0.993-0.464 0.993-1.018 0-0.008-0-0.016-0-0.024l0 0.001c0-0.007 0-0.015 0-0.023 0-0.553-0.441-1.004-0.991-1.018l-0.001-0h-7.279c-1.649 0-2.976 1.393-2.976 3.104v19.427c0 1.713 1.329 3.104 2.96 3.104h8.385c1.393 1.857 2.848 3.056 4.449 3.056s3.056-1.185 4.449-3.056h7.524c1.633 0 2.96-1.393 2.96-3.104v-10.849c0-0.010 0.001-0.022 0.001-0.034 0-0.542-0.436-0.983-0.976-0.991h-0.001zM9.168 16.030c-0.167 0.133-0.29 0.313-0.35 0.521l-0.002 0.007-1.217 4.401c-0.023 0.080-0.037 0.171-0.037 0.266 0 0.452 0.304 0.832 0.718 0.949l0.007 0.002c0.072 0.024 0.156 0.038 0.242 0.038 0.033 0 0.066-0.002 0.098-0.006l-0.004 0c0.012 0 0.026 0.001 0.040 0.001 0.071 0 0.14-0.006 0.207-0.018l-0.007 0.001 5.169-0.912c0.25-0.043 0.463-0.177 0.607-0.366l0.002-0.002c0.031-0.017 0.058-0.038 0.080-0.064l0-0 14.903-14.947c0.452-0.456 0.732-1.083 0.732-1.776s-0.279-1.321-0.732-1.776l-1.617-1.617c-0.456-0.452-1.083-0.732-1.776-0.732s-1.32 0.28-1.776 0.732l0-0-15.24 15.219c-0.016 0.032-0.032 0.048-0.048 0.080zM25.859 2.156c0.096-0.096 0.229-0.156 0.376-0.156s0.28 0.060 0.376 0.156v0l1.617 1.617c0.096 0.096 0.156 0.229 0.156 0.376s-0.060 0.28-0.156 0.376v0l-14.819 14.887-3.475 0.597 0.736-2.672z"></path>
</symbol>
<symbol id="icon-hotel" viewBox="0 0 32 32">
<title>hotel</title>
<path d="M31.2 29.488h-1.744v-14.144c0-0 0-0.001 0-0.002 0-1.174-0.952-2.126-2.126-2.126-0.001 0-0.001 0-0.002 0h-1.504c-0.002 0-0.004 0-0.006 0-1.128 0-2.042 0.914-2.042 2.042 0 0.002 0 0.005 0 0.007v-0 1.744c0 0.004 0 0.008 0 0.013 0 0.39-0.271 0.716-0.635 0.802l-0.006 0.001c-0.048 0.010-0.103 0.016-0.16 0.016-0.442 0-0.8-0.358-0.8-0.8 0-0 0-0 0-0v0-13.104c0-1.599-1.297-2.896-2.896-2.896h-13.888c-1.599 0-2.896 1.297-2.896 2.896v0 25.552h-1.728c-0.004-0-0.009-0-0.013-0-0.36 0-0.661 0.251-0.738 0.587l-0.001 0.005c-0.009 0.043-0.014 0.092-0.014 0.142 0 0.406 0.328 0.735 0.734 0.738h30.512c0.406-0.002 0.734-0.332 0.734-0.738 0-0.050-0.005-0.1-0.015-0.147l0.001 0.005c-0.085-0.342-0.39-0.592-0.753-0.592-0.005 0-0.011 0-0.016 0h0.001zM15.536 22.56h-6.528c-0.006 0-0.013 0-0.020 0-0.504 0-0.915-0.396-0.94-0.894l-0-0.002c-0-0.008-0-0.017-0-0.026 0-0.505 0.408-0.915 0.912-0.918h6.512c0.006-0 0.013-0 0.020-0 0.504 0 0.915 0.396 0.94 0.894l0 0.002c0.001 0.014 0.001 0.031 0.001 0.048 0 0.495-0.401 0.896-0.896 0.896-0 0-0.001 0-0.001 0h0zM15.536 16.8h-6.512c-0.006 0-0.013 0-0.020 0-0.504 0-0.915-0.396-0.94-0.894l-0-0.002c-0-0.008-0-0.017-0-0.026 0-0.505 0.408-0.915 0.912-0.918h6.512c0.006-0 0.013-0 0.020-0 0.504 0 0.915 0.396 0.94 0.894l0 0.002c0 0.011 0.001 0.023 0.001 0.035 0 0.502-0.407 0.909-0.909 0.909-0.001 0-0.003 0-0.004 0h0zM15.536 11.040h-6.512c-0.006 0-0.013 0-0.020 0-0.504 0-0.915-0.396-0.94-0.894l-0-0.002c-0-0.008-0-0.017-0-0.026 0-0.505 0.408-0.915 0.912-0.918h6.512c0.006-0 0.013-0 0.020-0 0.504 0 0.915 0.396 0.94 0.894l0 0.002c0 0.011 0.001 0.023 0.001 0.035 0 0.502-0.407 0.909-0.909 0.909-0.001 0-0.003 0-0.004 0h0z"></path>
</symbol>
<symbol id="icon-hotel3" viewBox="0 0 32 32">
<title>hotel3</title>
<path d="M31.439 29.385h-1.41v-15.722c0-1.143-1.815-1.153-1.815 0.010v15.511h-6.043v-25.6c-0.027-1.436-1.184-2.593-2.617-2.619l-0.003-0h-14.513c-1.436 0.027-2.593 1.184-2.619 2.617l-0 0.002v25.801h-1.608c-0.444 0-0.804 0.36-0.804 0.804s0.36 0.804 0.804 0.804v0h30.435c0.431-0.032 0.772-0.373 0.804-0.801l0-0.003c0-0.405-0.207-0.804-0.609-0.804zM4.228 29.385v-25.801c0.032-0.431 0.373-0.772 0.801-0.804l0.003-0h14.714c0.431 0.032 0.772 0.373 0.804 0.801l0 0.003v25.801zM15.923 8.827h-7.054c-0.431 0.032-0.772 0.373-0.804 0.801l-0 0.003c0.032 0.431 0.373 0.772 0.801 0.804l0.003 0h7.054c0.431-0.032 0.772-0.373 0.804-0.801l0-0.003c-0.032-0.431-0.373-0.772-0.801-0.804l-0.003-0zM15.923 15.074h-7.054c-0.444 0-0.804 0.36-0.804 0.804s0.36 0.804 0.804 0.804v0h7.054c0.444 0 0.804-0.36 0.804-0.804s-0.36-0.804-0.804-0.804v0zM15.923 20.316h-7.054c-0.431 0.032-0.772 0.373-0.804 0.801l-0 0.003c0 0.402 0.201 1.008 0.804 1.008h7.054c0.431-0.032 0.772-0.373 0.804-0.801l0-0.003c0-0.405-0.405-1.008-0.804-1.008z"></path>
<path d="M25.376 11.756c-0.675 0-1.222 0.547-1.222 1.222s0.547 1.222 1.222 1.222c0.675 0 1.222-0.547 1.222-1.222v0c0-0.675-0.547-1.222-1.222-1.222v0z"></path>
</symbol>
<symbol id="icon-hotwater" viewBox="0 0 32 32">
<title>hotwater</title>
<path d="M31.297 23.373c-2.117 0-2.924-0.881-3.57-1.589l-0.045-0.050c-0.613-0.666-1.469-1.43-2.681-1.43-0.372 0-0.674-0.302-0.674-0.674s0.302-0.674 0.674-0.674v0c1.757 0 2.937 1.067 3.672 1.868l0.047 0.049c0.588 0.646 1.050 1.151 2.576 1.151 0.372 0 0.674 0.302 0.674 0.674s-0.302 0.674-0.674 0.674v0zM6.932 23.373c-2.117 0-2.924-0.881-3.57-1.589l-0.047-0.050c-0.611-0.666-1.467-1.43-2.678-1.43-0.372 0-0.674-0.302-0.674-0.674s0.302-0.674 0.674-0.674v0c1.758 0 2.937 1.067 3.674 1.868l0.047 0.049c0.588 0.646 1.050 1.151 2.576 1.151 0.372 0 0.674 0.302 0.674 0.674s-0.302 0.674-0.674 0.674v0z"></path>
<path d="M6.646 23.373c-0.359-0.018-0.643-0.313-0.643-0.675s0.284-0.657 0.641-0.675l0.002-0c1.522 0 1.988-0.504 2.576-1.149l0.047-0.049c0.735-0.808 1.915-1.868 3.672-1.868 0.372 0 0.674 0.302 0.674 0.674s-0.302 0.674-0.674 0.674v0c-1.212 0-2.069 0.764-2.681 1.43l-0.044 0.050c-0.646 0.708-1.455 1.589-3.57 1.589z"></path>
<path d="M18.995 23.373c-2.117 0-2.922-0.881-3.57-1.589l-0.044-0.050c-0.611-0.666-1.466-1.43-2.678-1.43-0.372 0-0.674-0.302-0.674-0.674s0.302-0.674 0.674-0.674v0c1.757 0 2.937 1.067 3.672 1.868l0.047 0.049c0.585 0.646 1.050 1.151 2.575 1.151 0.372 0 0.674 0.302 0.674 0.674s-0.302 0.674-0.674 0.674v0z"></path>
<path d="M18.704 23.373c-0.010 0-0.021 0.001-0.033 0.001-0.373 0-0.676-0.302-0.676-0.676s0.302-0.676 0.676-0.676c0.012 0 0.023 0 0.035 0.001l-0.002-0c1.522 0 1.988-0.504 2.575-1.149l0.047-0.049c0.735-0.808 1.917-1.868 3.672-1.868 0.372 0 0.674 0.302 0.674 0.674s-0.302 0.674-0.674 0.674v0c-1.212 0-2.069 0.764-2.68 1.43l-0.045 0.050c-0.646 0.708-1.455 1.589-3.57 1.589z"></path>
<path d="M31.297 28.954c-2.117 0-2.922-0.881-3.57-1.585l-0.045-0.050c-0.613-0.666-1.469-1.432-2.681-1.432-0.372 0-0.674-0.302-0.674-0.674s0.302-0.674 0.674-0.674v0c1.757 0 2.937 1.067 3.672 1.868l0.047 0.050c0.588 0.646 1.052 1.149 2.576 1.149 0.372 0 0.674 0.302 0.674 0.674s-0.302 0.674-0.674 0.674v0zM6.932 28.954c-2.117 0-2.922-0.881-3.57-1.585l-0.044-0.050c-0.613-0.666-1.469-1.432-2.681-1.432-0.372 0-0.674-0.302-0.674-0.674s0.302-0.674 0.674-0.674v0c1.758 0 2.937 1.067 3.674 1.868l0.047 0.050c0.588 0.646 1.052 1.149 2.576 1.149 0.372 0 0.674 0.302 0.674 0.674s-0.302 0.674-0.674 0.674v0z"></path>
<path d="M6.646 28.954c-0.372 0-0.674-0.302-0.674-0.674s0.302-0.674 0.674-0.674v0c1.522 0 1.988-0.507 2.576-1.151l0.047-0.049c0.735-0.808 1.915-1.868 3.672-1.868 0.372 0 0.674 0.302 0.674 0.674s-0.302 0.674-0.674 0.674v0c-1.212 0-2.069 0.766-2.681 1.432l-0.044 0.049c-0.648 0.708-1.456 1.587-3.57 1.587z"></path>
<path d="M18.995 28.954c-2.116 0-2.922-0.881-3.567-1.589l-0.047-0.049c-0.611-0.666-1.466-1.432-2.68-1.432-0.372 0-0.674-0.302-0.674-0.674s0.302-0.674 0.674-0.674v0c1.757 0 2.937 1.067 3.672 1.868l0.047 0.050c0.585 0.646 1.050 1.149 2.575 1.149 0.372 0 0.674 0.302 0.674 0.674s-0.302 0.674-0.674 0.674v0z"></path>
<path d="M18.704 28.954c-0.372 0-0.674-0.302-0.674-0.674s0.302-0.674 0.674-0.674v0c1.522 0 1.986-0.507 2.575-1.149l0.047-0.050c0.735-0.808 1.917-1.868 3.672-1.868 0.372 0 0.674 0.302 0.674 0.674s-0.302 0.674-0.674 0.674v0c-1.212 0-2.069 0.766-2.68 1.432l-0.047 0.050c-0.646 0.708-1.455 1.585-3.567 1.585z"></path>
<path d="M9.977 15.539h-6.303c-0.004 0-0.009 0-0.014 0-0.371 0-0.672-0.301-0.672-0.672 0-0.188 0.077-0.358 0.202-0.48l0-0c0.485-0.485 4.834-5.45 5.691-6.547 0.018-0.022 0.036-0.041 0.055-0.060l0-0c0.108-0.173 0.273-1.151-0.142-1.923-0.323-0.608-0.923-0.905-1.818-0.905-1.705 0-2.188 1.068-2.405 1.872-0.026 0.127-0.071 0.241-0.133 0.342l0.003-0.005c-0.123 0.181-0.328 0.299-0.56 0.299-0.372 0-0.674-0.302-0.674-0.674 0-0.093 0.019-0.181 0.053-0.261l-0.002 0.004 0.015-0.053c0.642-2.373 2.371-2.87 3.711-2.87 2.048 0 2.848 1.196 3.145 1.91 0.485 1.178 0.299 2.621-0.196 3.176-0.656 0.834-3.232 3.806-4.739 5.495h4.785c0.372 0 0.674 0.302 0.674 0.674s-0.302 0.674-0.674 0.674v0zM19.659 13.033h-7.95c-0.001 0-0.002 0-0.002 0-0.371 0-0.672-0.301-0.672-0.672 0-0.143 0.044-0.275 0.12-0.384l-0.001 0.002 5.708-8.301c0.123-0.178 0.326-0.292 0.556-0.292 0.373 0 0.675 0.302 0.675 0.675 0 0.143-0.044 0.275-0.12 0.384l0.001-0.002-4.984 7.242h6.673c0.372 0 0.674 0.302 0.674 0.674s-0.302 0.674-0.674 0.674v0z"></path>
<path d="M17.411 15.842c-0.371-0.001-0.671-0.301-0.672-0.672v-11.111c0-0.372 0.302-0.674 0.674-0.674s0.674 0.302 0.674 0.674v0 11.111c-0.001 0.371-0.302 0.672-0.674 0.672-0.001 0-0.001 0-0.002 0h0zM22.686 15.842c-0.371-0.001-0.672-0.301-0.674-0.672v-11.541c0-0.372 0.302-0.674 0.674-0.674s0.674 0.302 0.674 0.674v0 11.541c-0.001 0.37-0.3 0.671-0.671 0.672h-0z"></path>
<path d="M28.265 15.842c-0.371-0.002-0.671-0.302-0.672-0.672v-5.035c0-1.416-1.094-2.158-2.179-2.158-1.603 0-2.077 1.455-2.080 1.471-0.088 0.279-0.344 0.477-0.646 0.477-0.374 0-0.677-0.303-0.677-0.677 0-0.071 0.011-0.14 0.031-0.204l-0.001 0.005c0.263-0.837 1.293-2.424 3.368-2.424 2.011 0 3.525 1.506 3.525 3.505v5.039c-0.001 0.37-0.3 0.67-0.669 0.672h-0z"></path>
</symbol>
<symbol id="icon-index" viewBox="0 0 32 32">
<title>index</title>
<path fill="#757575" style="fill: var(--color1, #757575)" d="M31.235 15.485l-13.106-13.106c-0.64-0.609-1.508-0.983-2.463-0.983s-1.823 0.374-2.464 0.985l0.002-0.001-12.995 12.995c-0.126 0.126-0.205 0.301-0.205 0.494 0 0.386 0.313 0.699 0.699 0.699 0.193 0 0.367-0.078 0.494-0.205l3.478-3.478v14.456c0 1.921 1.557 3.478 3.478 3.478v0h15.137c1.921 0 3.478-1.557 3.478-3.478v0-14.358l3.478 3.478c0.126 0.126 0.301 0.205 0.494 0.205 0.386 0 0.698-0.313 0.698-0.698 0-0.193-0.078-0.367-0.205-0.494v0zM25.377 27.339c0 1.153-0.934 2.087-2.087 2.087v0h-15.137c-1.153 0-2.087-0.934-2.087-2.087v0-15.861l8.125-8.125c0.383-0.364 0.903-0.588 1.475-0.588s1.091 0.224 1.476 0.589l-0.001-0.001 8.237 8.237z"></path>
<path fill="#757575" style="fill: var(--color1, #757575)" d="M17.892 12.466h-4.341c-1.153 0-2.087 0.934-2.087 2.087v0 4.355c0 1.153 0.934 2.087 2.087 2.087v0h4.355c1.153 0 2.087-0.934 2.087-2.087v0-4.355c0 0 0-0 0-0 0-1.153-0.934-2.087-2.087-2.087-0.005 0-0.010 0-0.015 0h0.001zM18.588 18.894c0 0.384-0.311 0.696-0.696 0.696v0h-4.341c-0.384 0-0.696-0.311-0.696-0.696v0-4.341c0-0.384 0.311-0.696 0.696-0.696v0h4.355c0.384 0 0.696 0.311 0.696 0.696v0z"></path>
</symbol>
<symbol id="icon-index2" viewBox="0 0 32 32">
<title>index2</title>
<path fill="#1db6f6" style="fill: var(--color2, #1db6f6)" d="M31.235 15.485l-13.106-13.106c-0.64-0.609-1.508-0.983-2.463-0.983s-1.823 0.374-2.464 0.985l0.002-0.001-12.995 12.995c-0.126 0.126-0.205 0.301-0.205 0.494 0 0.386 0.313 0.699 0.699 0.699 0.193 0 0.367-0.078 0.494-0.205l3.478-3.478v14.456c0 1.921 1.557 3.478 3.478 3.478v0h15.137c1.921 0 3.478-1.557 3.478-3.478v0-14.358l3.478 3.478c0.126 0.126 0.301 0.205 0.494 0.205 0.386 0 0.698-0.313 0.698-0.698 0-0.193-0.078-0.367-0.205-0.494v0z"></path>
<path fill="#1db6f6" style="fill: var(--color2, #1db6f6)" d="M25.377 27.339c0 1.153-0.934 2.087-2.087 2.087v0h-15.137c-1.153 0-2.087-0.934-2.087-2.087v0-15.861l8.125-8.125c0.383-0.364 0.903-0.588 1.475-0.588s1.091 0.224 1.476 0.589l-0.001-0.001 8.237 8.237z"></path>
<path fill="#fff" style="fill: var(--color3, #fff)" d="M13.551 12.466h4.355c1.153 0 2.087 0.934 2.087 2.087v4.355c0 1.153-0.934 2.087-2.087 2.087h-4.355c-1.153 0-2.087-0.934-2.087-2.087v-4.355c0-1.153 0.934-2.087 2.087-2.087z"></path>
<path fill="#1db6f6" style="fill: var(--color2, #1db6f6)" d="M13.551 13.857h4.355c0.384 0 0.696 0.311 0.696 0.696v4.355c0 0.384-0.311 0.696-0.696 0.696h-4.355c-0.384 0-0.696-0.311-0.696-0.696v-4.355c0-0.384 0.311-0.696 0.696-0.696z"></path>
</symbol>
<symbol id="icon-left-arrow" viewBox="0 0 32 32">
<title>left-arrow</title>
<path stroke-width="2.6806" stroke-miterlimit="4" stroke-linecap="round" stroke-linejoin="round" d="M23.204 30.66l-14.408-14.743 14.408-14.576"></path>
</symbol>
<symbol id="icon-main" viewBox="0 0 32 32">
<title>main</title>
<path fill="#757575" style="fill: var(--color1, #757575)" d="M16 1.401c8.063 0 14.599 6.536 14.599 14.599s-6.536 14.599-14.599 14.599c-8.063 0-14.599-6.536-14.599-14.599v0c0.008-8.060 6.539-14.591 14.598-14.599h0.001zM16 0c-8.837 0-16 7.163-16 16s7.163 16 16 16c8.837 0 16-7.163 16-16v0c0-8.837-7.163-16-16-16v0z"></path>
<path fill="none" stroke="#757575" stroke-width="1.4011" stroke-miterlimit="4" stroke-linecap="round" stroke-linejoin="round" style="stroke: var(--color1, #757575)" d="M21.968 11.489c0 3.296-2.672 5.968-5.968 5.968s-5.968-2.672-5.968-5.968c0-3.296 2.672-5.968 5.968-5.968s5.968 2.672 5.968 5.968z"></path>
<path fill="none" stroke="#757575" stroke-width="1.4011" stroke-miterlimit="4" stroke-linecap="round" stroke-linejoin="round" style="stroke: var(--color1, #757575)" d="M26.956 26.536c-1.032-5.196-5.547-9.062-10.968-9.079h-0.002"></path>
<path fill="none" stroke="#757575" stroke-width="1.4011" stroke-miterlimit="4" stroke-linecap="round" stroke-linejoin="round" style="stroke: var(--color1, #757575)" d="M10.508 18.9c-2.811 1.616-4.83 4.342-5.466 7.565l-0.012 0.071"></path>
</symbol>
<symbol id="icon-main2" viewBox="0 0 32 32">
<title>main2</title>
<path fill="#1db6f6" style="fill: var(--color2, #1db6f6)" d="M16 31.299c-8.45 0-15.299-6.85-15.299-15.299s6.85-15.299 15.299-15.299c8.45 0 15.299 6.85 15.299 15.299v0c-0.008 8.446-6.853 15.292-15.299 15.299h-0.001z"></path>
<path fill="#1db6f6" style="fill: var(--color2, #1db6f6)" d="M16 1.401c8.063 0 14.599 6.536 14.599 14.599s-6.536 14.599-14.599 14.599c-8.063 0-14.599-6.536-14.599-14.599v0c0.008-8.060 6.539-14.591 14.598-14.599h0.001zM16 0c-8.837 0-16 7.163-16 16s7.163 16 16 16c8.837 0 16-7.163 16-16v0c0-8.837-7.163-16-16-16v0z"></path>
<path fill="none" stroke="#fff" stroke-width="1.4011" stroke-miterlimit="4" stroke-linecap="round" stroke-linejoin="round" style="stroke: var(--color3, #fff)" d="M21.968 11.489c0 3.296-2.672 5.968-5.968 5.968s-5.968-2.672-5.968-5.968c0-3.296 2.672-5.968 5.968-5.968s5.968 2.672 5.968 5.968z"></path>
<path fill="none" stroke="#fff" stroke-width="1.4011" stroke-miterlimit="4" stroke-linecap="round" stroke-linejoin="round" style="stroke: var(--color3, #fff)" d="M26.956 26.536c-1.032-5.196-5.547-9.062-10.968-9.079h-0.002"></path>
<path fill="none" stroke="#fff" stroke-width="1.4011" stroke-miterlimit="4" stroke-linecap="round" stroke-linejoin="round" style="stroke: var(--color3, #fff)" d="M10.508 18.9c-2.811 1.616-4.83 4.342-5.466 7.565l-0.012 0.071"></path>
</symbol>
<symbol id="icon-movie" viewBox="0 0 32 32">
<title>movie</title>
<path d="M13.073 29.041c-7.22 0-13.073-5.853-13.073-13.073s5.853-13.073 13.073-13.073c7.22 0 13.073 5.853 13.073 13.073v0c-0.009 7.217-5.857 13.064-13.072 13.073h-0.001zM13.073 4.342c-6.417 0.005-11.618 5.208-11.618 11.626 0 6.421 5.205 11.626 11.626 11.626s11.626-5.205 11.626-11.626v0c-0.009-6.42-5.213-11.622-11.634-11.626h-0z"></path>
<path d="M13.073 12.374c-1.59 0-2.878-1.289-2.878-2.878s1.289-2.878 2.878-2.878c1.59 0 2.878 1.289 2.878 2.878v0c-0.001 1.589-1.289 2.877-2.878 2.878h-0zM13.073 8.064c-0.79 0-1.431 0.641-1.431 1.431s0.641 1.431 1.431 1.431c0.79 0 1.431-0.641 1.431-1.431v0c-0.002-0.79-0.642-1.429-1.431-1.431h-0z"></path>
<path d="M13.073 25.294c-1.59 0-2.878-1.289-2.878-2.878s1.289-2.878 2.878-2.878c1.59 0 2.878 1.289 2.878 2.878v0c-0.001 1.589-1.289 2.877-2.878 2.878h-0zM13.073 20.993c-0.79 0-1.431 0.641-1.431 1.431s0.641 1.431 1.431 1.431c0.79 0 1.431-0.641 1.431-1.431v0c-0.002-0.79-0.642-1.429-1.431-1.431h-0z"></path>
<path d="M19.538 18.83c-1.59 0-2.878-1.289-2.878-2.878s1.289-2.878 2.878-2.878c1.59 0 2.878 1.289 2.878 2.878v0c-0.001 1.589-1.289 2.877-2.878 2.878h-0zM19.538 14.529c-0.79 0-1.431 0.641-1.431 1.431s0.641 1.431 1.431 1.431c0.79 0 1.431-0.641 1.431-1.431v0c0-0.001 0-0.003 0-0.005 0-0.791-0.64-1.433-1.431-1.434h-0z"></path>
<path d="M6.617 18.83c-1.59 0-2.878-1.289-2.878-2.878s1.289-2.878 2.878-2.878c1.59 0 2.878 1.289 2.878 2.878v0c-0.001 1.589-1.289 2.877-2.878 2.878h-0zM6.617 14.521c-0.79 0-1.431 0.641-1.431 1.431s0.641 1.431 1.431 1.431c0.79 0 1.431-0.641 1.431-1.431v0c-0.002-0.79-0.641-1.429-1.431-1.431h-0z"></path>
<path d="M27.224 27.079c-0.007 0-0.016 0-0.024 0-0.317 0-0.624-0.038-0.919-0.11l0.026 0.005c-0.565-0.151-1.060-0.377-1.507-0.671l0.019 0.012c-0.482-0.273-0.884-0.515-1.504-0.571-0.836-0.072-1.721 0.217-2.629 0.86-0.124 0.104-0.285 0.167-0.462 0.167-0.399 0-0.722-0.323-0.722-0.722 0-0.267 0.145-0.5 0.36-0.625l0.003-0.002c1.198-0.844 2.412-1.222 3.586-1.126 0.949 0.080 1.568 0.442 2.115 0.756 0.316 0.211 0.683 0.381 1.074 0.492l0.027 0.007c1.158 0.281 2.436-0.297 4.157-1.721 0.125-0.103 0.286-0.166 0.462-0.166 0.402 0 0.728 0.326 0.728 0.728 0 0.226-0.103 0.428-0.265 0.562l-0.001 0.001c-1.737 1.415-3.12 2.123-4.527 2.123z"></path>
</symbol>
<symbol id="icon-movie2" viewBox="0 0 32 32">
<title>movie2</title>
<path d="M27.143 27.322c-0.014 0-0.030 0-0.047 0-0.313 0-0.615-0.042-0.903-0.12l0.024 0.006c-0.568-0.153-1.065-0.381-1.513-0.678l0.019 0.012c-0.471-0.276-0.893-0.52-1.511-0.585-0.845-0.065-1.738 0.227-2.664 0.877-0.115 0.082-0.259 0.13-0.414 0.13-0.399 0-0.723-0.324-0.723-0.723 0-0.244 0.121-0.46 0.307-0.591l0.002-0.002c1.202-0.845 2.437-1.235 3.622-1.137 0.958 0.081 1.592 0.455 2.144 0.763 0.322 0.211 0.695 0.383 1.092 0.497l0.029 0.007c1.17 0.292 2.453-0.292 4.191-1.738 0.131-0.119 0.305-0.192 0.497-0.192 0.408 0 0.739 0.331 0.739 0.739 0 0.24-0.115 0.454-0.292 0.589l-0.002 0.001c-1.771 1.429-3.168 2.144-4.597 2.144z"></path>
<path d="M13.174 2.843c-7.276 0-13.174 5.898-13.174 13.174s5.898 13.174 13.174 13.174c7.276 0 13.174-5.898 13.174-13.174v0c0-0 0-0.001 0-0.002 0-7.275-5.897-13.172-13.172-13.172-0.001 0-0.001 0-0.002 0h0zM6.644 18.859c-1.579 0-2.859-1.28-2.859-2.859s1.28-2.859 2.859-2.859c1.579 0 2.859 1.28 2.859 2.859v0c-0.003 1.578-1.281 2.856-2.859 2.859h-0zM13.141 25.373c-1.579 0-2.859-1.28-2.859-2.859s1.28-2.859 2.859-2.859c1.579 0 2.859 1.28 2.859 2.859v0c-0.003 1.578-1.281 2.856-2.859 2.859h-0zM13.141 12.378c-1.571-0.005-2.843-1.279-2.843-2.851 0-1.574 1.276-2.851 2.851-2.851s2.851 1.276 2.851 2.851c0 0.003 0 0.006 0 0.009v-0c-0.012 1.571-1.287 2.84-2.859 2.843h-0zM19.704 18.859c-1.579 0-2.859-1.28-2.859-2.859s1.28-2.859 2.859-2.859c1.579 0 2.859 1.28 2.859 2.859v0c-0.003 1.578-1.281 2.856-2.859 2.859h-0z"></path>
</symbol>
<symbol id="icon-new2" viewBox="0 0 32 32">
<title>new2</title>
<path d="M21.394 20.114c1.969 0 3.566-1.596 3.566-3.566v0-10.697c0-1.969-1.596-3.566-3.566-3.566v0h-17.829c-1.969 0-3.566 1.596-3.566 3.566v0 10.697c0 1.969 1.596 3.566 3.566 3.566v0h2.278l1.388 6.034 7.131-6.034zM28.526 7.040h-2.229l-0.148 12.034c0 2.229-2.377 2.229-2.377 2.229l-8.7 0.022-1.997 2.355h4.656l7.131 6.034 1.388-6.034h2.278c1.969 0 3.566-1.596 3.566-3.566v0-9.509c0-1.969-1.596-3.566-3.566-3.566-0.001 0-0.001 0-0.002 0h0z"></path>
</symbol>
<symbol id="icon-news" viewBox="0 0 32 32">
<title>news</title>
<path d="M24.669 16.405v-10.24c0-1.814-1.546-3.29-3.446-3.29h-15.928c-0.010-0.001-0.021-0.001-0.033-0.001-0.377 0-0.683 0.306-0.683 0.683s0.306 0.683 0.683 0.683c0.012 0 0.023-0 0.035-0.001l-0.002 0h15.93c1.12 0 2.019 0.864 2.019 1.92v10.24c0 1.064-0.907 1.928-2.019 1.928h-8.296c-0.001 0-0.003 0-0.004 0-0.182 0-0.348 0.066-0.477 0.175l0.001-0.001-5.779 4.96v-4.448c-0.009-0.378-0.318-0.682-0.697-0.682-0.006 0-0.011 0-0.017 0l0.001-0h-2.507c-1.12 0-2.019-0.864-2.019-1.928v-10.24c-0.012-0.376-0.321-0.677-0.699-0.677-0.005 0-0.010 0-0.016 0h0.001c-0.005-0-0.010-0-0.016-0-0.38 0-0.689 0.303-0.699 0.681l-0 0.001v10.24c0 1.81 1.547 3.286 3.448 3.286h1.792v5.31c0.003 0.28 0.175 0.519 0.418 0.621l0.005 0.002c0.086 0.038 0.186 0.059 0.29 0.059 0.183 0 0.351-0.067 0.48-0.177l-0.001 0.001 6.771-5.816h8.021c1.899 0 3.445-1.477 3.445-3.291zM28.509 8.608h-2.461c-0.010-0.001-0.021-0.001-0.033-0.001-0.377 0-0.683 0.306-0.683 0.683s0.306 0.683 0.683 0.683c0.012 0 0.023-0 0.035-0.001l-0.002 0h2.458c1.133 0 2.019 0.814 2.019 1.854v8.421c0 1.13-1.014 1.635-2.019 1.635h-2.24c-0.002 0-0.003-0-0.005-0-0.194 0-0.371 0.076-0.501 0.2l0-0c-0.128 0.121-0.208 0.291-0.21 0.48v4.411l-5.675-4.917c-0.127-0.109-0.294-0.176-0.476-0.176-0.001 0-0.003 0-0.004 0h-2.449c-0.683 0-1.28-0.224-1.638-0.613-0.135-0.143-0.325-0.231-0.536-0.231-0.18 0-0.345 0.064-0.473 0.171l0.001-0.001c-0.148 0.122-0.241 0.305-0.241 0.51 0 0.174 0.067 0.332 0.177 0.45l-0-0c0.63 0.683 1.618 1.077 2.72 1.077h2.178l6.667 5.774c0.128 0.109 0.295 0.176 0.478 0.176 0.001 0 0.002 0 0.003 0h-0c0.101-0.002 0.197-0.023 0.285-0.061l-0.005 0.002c0.249-0.103 0.421-0.343 0.424-0.624v-0l-0.008-5.269h1.53c1.998 0 3.448-1.261 3.448-2.998v-8.418c0-1.806-1.515-3.219-3.45-3.219z"></path>
</symbol>
<symbol id="icon-none" viewBox="0 0 32 32">
<title>none</title>
<path stroke-width="0.3282" stroke-miterlimit="10" stroke-linecap="butt" stroke-linejoin="miter" d="M25.6 23.171c-0.183-0.245-0.421-0.44-0.694-0.57l-0.011-0.005c-0.348-0.176-0.758-0.279-1.192-0.279-0.008 0-0.016 0-0.023 0h-0.097c-0.541 0.050-1.019 0.285-1.379 0.64l0-0c-0.146 0.14-0.263 0.309-0.341 0.499l-0.004 0.010c-0.263 0.985 0.394 1.313 0.87 1.543 0.16 0.061 0.296 0.151 0.41 0.263l-0-0c0.295 0.377 0.164 0.804 0.066 1.149-0.032 0.086-0.055 0.186-0.065 0.29l-0 0.005c-0.013 0.055-0.021 0.119-0.021 0.184 0 0.206 0.076 0.395 0.202 0.539l-0.001-0.001c0.295 0.345 0.82 0.361 0.968 0.361v0c0.015 0.001 0.033 0.001 0.051 0.001 0.069 0 0.136-0.006 0.202-0.019l-0.007 0.001c0.384-0.077 0.712-0.277 0.95-0.556l0.002-0.002c0.223-0.271 0.393-0.596 0.488-0.95l0.004-0.018c0.097-0.36 0.153-0.772 0.153-1.198 0-0.29-0.026-0.574-0.076-0.849l0.004 0.029c-0.066-0.408-0.229-0.769-0.463-1.072l0.004 0.005zM24.271 27.536c-0.263 0-0.591-0.066-0.771-0.279-0.082-0.1-0.131-0.229-0.131-0.37 0-0.049 0.006-0.097 0.017-0.142l-0.001 0.004c0.016-0.066 0.033-0.164 0.066-0.263 0.063-0.184 0.104-0.397 0.115-0.618l0-0.005c0.002-0.022 0.002-0.047 0.002-0.073 0-0.258-0.087-0.495-0.234-0.684l0.002 0.003c-0.132-0.145-0.297-0.257-0.484-0.325l-0.009-0.003c-0.241-0.103-0.448-0.242-0.624-0.411l0.001 0.001c-0.106-0.142-0.17-0.322-0.17-0.516 0-0.109 0.020-0.214 0.057-0.31l-0.002 0.006c0.033-0.098 0.377-0.837 1.493-0.985h0.066c0.427 0 1.838 0.131 2.117 1.707 0.041 0.229 0.065 0.493 0.065 0.762 0 0.406-0.054 0.799-0.154 1.173l0.007-0.031c-0.213 0.755-0.624 1.214-1.247 1.329-0.043 0.022-0.093 0.035-0.147 0.035-0.012 0-0.024-0.001-0.035-0.002l0.001 0z"></path>
<path stroke-width="0.3282" stroke-miterlimit="10" stroke-linecap="butt" stroke-linejoin="miter" d="M22.236 21.415c0-0.625-0.507-1.132-1.132-1.132s-1.132 0.507-1.132 1.132c0 0.625 0.507 1.132 1.132 1.132v0c0.625-0.001 1.131-0.507 1.132-1.132v-0zM21.104 22.285c-0.48 0-0.87-0.389-0.87-0.87s0.389-0.87 0.87-0.87c0.48 0 0.87 0.389 0.87 0.87v0c-0.004 0.479-0.391 0.866-0.869 0.87h-0z"></path>
<path stroke-width="0.3282" stroke-miterlimit="10" stroke-linecap="butt" stroke-linejoin="miter" d="M23.483 21.432c0.317 0 0.574-0.257 0.574-0.574s-0.257-0.574-0.574-0.574c-0.317 0-0.574 0.257-0.574 0.574v0c0 0.001 0 0.002 0 0.003 0 0.315 0.256 0.571 0.571 0.571 0.001 0 0.002 0 0.003 0h-0zM23.483 20.546c0.172 0 0.312 0.14 0.312 0.312s-0.14 0.312-0.312 0.312c-0.172 0-0.312-0.14-0.312-0.312v0c-0-0.003-0-0.006-0-0.010 0-0.167 0.135-0.302 0.302-0.302 0.004 0 0.007 0 0.011 0h-0z"></path>
<path stroke-width="0.3282" stroke-miterlimit="10" stroke-linecap="butt" stroke-linejoin="miter" d="M25.255 21.563c0.317 0 0.574-0.257 0.574-0.574s-0.257-0.574-0.574-0.574c-0.317 0-0.574 0.257-0.574 0.574v0c-0 0.004-0 0.009-0 0.013 0 0.31 0.251 0.561 0.561 0.561 0.005 0 0.009-0 0.014-0h-0.001zM25.255 20.677c0.172 0 0.312 0.14 0.312 0.312s-0.14 0.312-0.312 0.312c-0.172 0-0.312-0.14-0.312-0.312v0c-0-0.003-0-0.006-0-0.010 0-0.167 0.135-0.302 0.302-0.302 0.004 0 0.007 0 0.011 0h-0z"></path>
<path stroke-width="0.3282" stroke-miterlimit="10" stroke-linecap="butt" stroke-linejoin="miter" d="M26.716 21.465c-0.317 0-0.574 0.257-0.574 0.574s0.257 0.574 0.574 0.574c0.317 0 0.574-0.257 0.574-0.574v0c-0.004-0.316-0.259-0.571-0.574-0.574h-0zM26.716 22.351c-0.172 0-0.312-0.14-0.312-0.312s0.14-0.312 0.312-0.312c0.172 0 0.312 0.14 0.312 0.312v0c0 0.003 0 0.006 0 0.010 0 0.167-0.135 0.302-0.302 0.302-0.004 0-0.007-0-0.011-0h0z"></path>
<path fill="none" stroke="#000" stroke-width="0.6564" stroke-miterlimit="4" stroke-linecap="round" stroke-linejoin="round" style="stroke: var(--color4, #000)" d="M22.006 3.233h-16.016c-0.906 0-1.641 0.735-1.641 1.641v0 21.99c0 0.906 0.735 1.641 1.641 1.641v0h10.289"></path>
<path fill="none" stroke="#000" stroke-width="0.6564" stroke-miterlimit="4" stroke-linecap="round" stroke-linejoin="round" style="stroke: var(--color4, #000)" d="M22.515 1.116h6.072l-6.072 7.155h6.072"></path>
<path fill="none" stroke="#000" stroke-width="0.6564" stroke-miterlimit="4" stroke-linecap="round" stroke-linejoin="round" style="stroke: var(--color4, #000)" d="M25.305 9.977v5.022"></path>
<path fill="none" stroke="#000" stroke-width="0.6564" stroke-miterlimit="4" stroke-linecap="round" stroke-linejoin="round" style="stroke: var(--color4, #000)" d="M28.587 28.127c-1.247 1.383-3.046 2.249-5.046 2.249-3.748 0-6.786-3.038-6.786-6.786s3.038-6.786 6.786-6.786c3.744 0 6.781 3.033 6.786 6.776v0"></path>
<path stroke-width="0.6564" stroke-miterlimit="4" stroke-linecap="round" stroke-linejoin="round" d="M29.407 28.849l-1.69-1.641 2.068-0.377-0.377 2.018z"></path>
<path d="M10.388 11.52c-0.489 0-0.886-0.397-0.886-0.886s0.397-0.886 0.886-0.886c0.489 0 0.886 0.397 0.886 0.886v0c-0.021 0.481-0.406 0.865-0.884 0.886l-0.002 0zM10.388 10.273c-0.002-0-0.004-0-0.007-0-0.196 0-0.354 0.159-0.354 0.354 0 0.002 0 0.005 0 0.007v-0c0 0.199 0.162 0.361 0.361 0.361s0.361-0.162 0.361-0.361c0-0.199-0.162-0.361-0.361-0.361v0zM20.004 11.52c-0.489 0-0.886-0.397-0.886-0.886s0.397-0.886 0.886-0.886c0.489 0 0.886 0.397 0.886 0.886v0c0 0.001 0 0.002 0 0.003 0 0.488-0.395 0.883-0.883 0.883-0.001 0-0.002 0-0.003 0h0zM20.004 10.273c-0.002-0-0.004-0-0.007-0-0.196 0-0.354 0.159-0.354 0.354 0 0.002 0 0.005 0 0.007v-0c0.002 0.199 0.162 0.359 0.361 0.361h0c0.002 0 0.004 0 0.007 0 0.196 0 0.354-0.159 0.354-0.354 0-0.002-0-0.005-0-0.007v0c-0.002-0.199-0.162-0.359-0.361-0.361h-0z"></path>
<path d="M18.724 16.148h-6.4c-0.109 0-0.197-0.088-0.197-0.197s0.088-0.197 0.197-0.197v0h6.4c0.108 0.002 0.195 0.089 0.197 0.197v0c-0.007 0.106-0.091 0.19-0.196 0.197l-0.001 0z"></path>
<path d="M3.315 7.893c-0.009 0.169-0.143 0.303-0.311 0.312l-0.001 0h-1.625c-0.169-0.008-0.303-0.143-0.312-0.311l-0-0.001c0.008-0.169 0.143-0.303 0.311-0.312l0.001-0h1.657c0.157 0.014 0.279 0.145 0.279 0.304 0 0.003-0 0.005-0 0.008v-0zM2.183 8.927c-0.169-0.008-0.303-0.143-0.312-0.311l-0-0.001v-1.608c0.008-0.169 0.143-0.303 0.311-0.312l0.001-0c0.169 0.008 0.303 0.143 0.312 0.311l0 0.001v1.657c-0.016 0.149-0.141 0.263-0.292 0.263-0.007 0-0.014-0-0.021-0.001l0.001 0zM28.997 12.423c-0.007 0.001-0.015 0.001-0.022 0.001-0.133 0-0.241-0.108-0.241-0.241 0-0.008 0-0.016 0.001-0.023l-0 0.001v-1.034c0-0.145 0.118-0.263 0.263-0.263s0.263 0.118 0.263 0.263v0 1.034c-0.049 0.164-0.164 0.263-0.263 0.263zM28.997 14.654c-0.007 0.001-0.015 0.001-0.022 0.001-0.133 0-0.241-0.108-0.241-0.241 0-0.008 0-0.016 0.001-0.023l-0 0.001v-1.034c-0-0.004-0-0.009-0-0.014 0-0.138 0.112-0.249 0.249-0.249 0.005 0 0.009 0 0.014 0l-0.001-0c0.007-0.001 0.015-0.001 0.022-0.001 0.133 0 0.241 0.108 0.241 0.241 0 0.008-0 0.016-0.001 0.023l0-0.001v1.034c-0.049 0.164-0.164 0.263-0.263 0.263zM28.636 12.784c0 0.004 0 0.009 0 0.014 0 0.138-0.112 0.249-0.249 0.249-0.005 0-0.009-0-0.014-0l0.001 0h-1.034c-0.145 0-0.263-0.118-0.263-0.263s0.118-0.263 0.263-0.263h1.034c0.141 0.009 0.253 0.121 0.263 0.262l0 0.001zM30.868 12.784c0 0.004 0 0.009 0 0.014 0 0.138-0.112 0.249-0.249 0.249-0.005 0-0.009-0-0.014-0l0.001 0h-1.034c-0.145 0-0.263-0.118-0.263-0.263s0.118-0.263 0.263-0.263h1.034c0.133 0.026 0.237 0.129 0.262 0.261l0 0.002z"></path>
<path d="M17.313 1.822l-0.312-0.574-0.574-0.312 0.574-0.361 0.312-0.574 0.312 0.574 0.624 0.361-0.624 0.312z"></path>
<path d="M18.806 30.835c-0.009 0.169-0.143 0.303-0.311 0.312l-0.001 0h-1.674c-0.172 0-0.312-0.14-0.312-0.312s0.14-0.312 0.312-0.312h1.674c0.169 0.009 0.303 0.143 0.312 0.311l0 0.001z"></path>
<path d="M17.707 29.637c-0.169 0.009-0.303 0.143-0.312 0.311l-0 0.001v1.657c0.009 0.169 0.143 0.303 0.311 0.312l0.001 0c0.164 0 0.263-0.098 0.312-0.312v-1.657c-0.009-0.169-0.143-0.303-0.311-0.312l-0.001-0z"></path>
</symbol>
<symbol id="icon-none2" viewBox="0 0 32 32">
<title>none2</title>
<path d="M4.143 8.416v-1.144c0-0.545 0.382-1.091 0.927-1.144l0.218-0.055v-0.981c0.011-0.718 0.591-1.298 1.308-1.308h0.001v-0.057h6.596c0.719 0.010 1.3 0.59 1.309 1.308v0.928h9.268c0.719 0.010 1.299 0.589 1.309 1.307v1.145h0.49v-1.091c0-0.004 0-0.009 0-0.014 0-1.016-0.823-1.839-1.839-1.839-0.005 0-0.010 0-0.015 0h-8.724v-0.437c0-0.004 0-0.009 0-0.014 0-1.016-0.823-1.839-1.839-1.839-0.005 0-0.011 0-0.016 0h-6.537c-0.006-0-0.012-0-0.019-0-1.016 0-1.839 0.823-1.839 1.839 0 0.005 0 0.010 0 0.015v-0.001 0.545c-0.701 0.258-1.193 0.915-1.204 1.688v1.145zM29.385 27.613c-0.009 0.177-0.15 0.318-0.326 0.327l-0.001 0h-1.745c-0.181 0-0.327-0.146-0.327-0.327s0.146-0.327 0.327-0.327h1.748c0.175 0.011 0.315 0.151 0.323 0.326l0 0.001zM2.018 5.855c-0.177-0.009-0.318-0.15-0.327-0.326l-0-0.001v-1.745c0.009-0.177 0.15-0.318 0.326-0.327l0.001-0c0.177 0.009 0.318 0.15 0.327 0.326l0 0.001v1.745c-0.055 0.163-0.163 0.327-0.327 0.327z"></path>
<path d="M3.162 4.655c-0.009 0.177-0.15 0.318-0.326 0.327l-0.001 0h-1.689c-0.177-0.009-0.318-0.15-0.327-0.326l-0-0.001c0.009-0.177 0.15-0.318 0.326-0.327l0.001-0h1.745c0.154 0.017 0.273 0.146 0.273 0.303 0 0.008-0 0.017-0.001 0.025l0-0.001zM30.094 9.399c-0.004 0-0.009 0-0.014 0-0.143 0-0.258-0.116-0.258-0.258 0-0.005 0-0.010 0-0.015l-0 0.001v-1.092c0-0.151 0.122-0.273 0.273-0.273s0.273 0.122 0.273 0.273v0 1.091c-0.055 0.163-0.163 0.274-0.274 0.274zM30.094 11.744c-0.004 0-0.009 0-0.014 0-0.143 0-0.258-0.116-0.258-0.258 0-0.005 0-0.010 0-0.015l-0 0.001v-1.092c0-0.151 0.122-0.273 0.273-0.273s0.273 0.122 0.273 0.273v0 1.091c-0.055 0.163-0.163 0.272-0.274 0.272zM29.712 9.781c0 0.004 0 0.009 0 0.014 0 0.143-0.116 0.258-0.258 0.258-0.005 0-0.010-0-0.015-0l0.001 0h-1.091c-0.151 0-0.273-0.122-0.273-0.273s0.122-0.273 0.273-0.273v0h1.091c0.147 0.009 0.263 0.125 0.273 0.271l0 0.001zM32.057 9.781c0 0.004 0 0.009 0 0.014 0 0.143-0.116 0.258-0.258 0.258-0.005 0-0.010-0-0.015-0l0.001 0h-1.091c-0.151 0-0.273-0.122-0.273-0.273s0.122-0.273 0.273-0.273v0h1.091c0.138 0.028 0.244 0.134 0.271 0.27l0 0.002z"></path>
<path d="M2.727 20.575l-0.981-1.745-1.746-0.982 1.745-0.981 0.981-1.745 0.981 1.745 1.745 0.981-1.745 0.981zM1.146 17.848l1.032 0.545 0.545 1.032 0.545-1.032 1.032-0.545-1.032-0.545-0.545-1.032-0.545 1.032z"></path>
<path d="M27.205 5.691l0.108-0.218 0.172 0.218 0.218 0.172-0.218 0.108-0.172 0.272-0.108-0.272-0.272-0.108z"></path>
<path d="M27.314 6.782l-0.327-0.6-0.6-0.327 0.6-0.382 0.327-0.6 0.327 0.6 0.654 0.382-0.654 0.327z"></path>
<path d="M9.541 14.032c-0.512 0-0.927-0.415-0.927-0.927s0.415-0.927 0.927-0.927c0.512 0 0.927 0.415 0.927 0.927v0c-0.015 0.506-0.421 0.912-0.926 0.927l-0.001 0zM9.541 12.723c-0.211 0-0.382 0.171-0.382 0.382s0.171 0.382 0.382 0.382c0.211 0 0.382-0.171 0.382-0.382v0c0-0.002 0-0.005 0-0.007 0-0.206-0.167-0.373-0.373-0.373-0.003 0-0.006 0-0.009 0h0zM19.627 14.032c-0.512 0-0.927-0.415-0.927-0.927s0.415-0.927 0.927-0.927c0.512 0 0.927 0.415 0.927 0.927v0c0 0.003 0 0.006 0 0.009 0 0.507-0.411 0.919-0.919 0.919-0.003 0-0.006 0-0.009-0h0zM19.627 12.723c-0.211 0-0.382 0.171-0.382 0.382s0.171 0.382 0.382 0.382c0.211 0 0.382-0.171 0.382-0.382v0c0-0.002 0-0.005 0-0.007 0-0.206-0.167-0.373-0.373-0.373-0.003 0-0.006 0-0.009 0h0z"></path>
<path d="M25.732 8.145h-22.243c-0.029-0.002-0.062-0.003-0.096-0.003-0.482 0-0.914 0.211-1.21 0.545l-0.001 0.002c-0.275 0.297-0.444 0.697-0.444 1.136 0 0.061 0.003 0.121 0.010 0.181l-0.001-0.007 0.638 6.336 0.344-0.612 0.21 0.375-0.649-6.154c-0.009-0.050-0.014-0.107-0.014-0.165 0-0.276 0.111-0.526 0.291-0.708l-0 0c0.188-0.235 0.474-0.384 0.796-0.384 0.023 0 0.045 0.001 0.067 0.002l-0.003-0v-0.055h22.366c0.009-0 0.021-0 0.032-0 0.331 0 0.628 0.149 0.827 0.383l0.001 0.002c0.181 0.182 0.293 0.433 0.293 0.709 0 0.059-0.005 0.116-0.015 0.172l0.001-0.006-0.262 2.495c0.218 0.056 0.398 0.115 0.572 0.184l-0.034-0.012 0.267-2.553c0-0.49-0.108-0.981-0.435-1.309-0.336-0.334-0.797-0.543-1.306-0.552l-0.002-0zM28.241 26.354c-0.177 0.009-0.318 0.15-0.327 0.326l-0 0.001v1.745c0.009 0.177 0.15 0.318 0.326 0.327l0.001 0q0.246 0 0.327-0.327v-1.745c-0.009-0.177-0.15-0.318-0.326-0.327l-0.001-0zM18.885 25.481h5.321c0.872 0 1.689-0.654 1.8-1.418l0.206-1.965c-0.162 0.026-0.356 0.045-0.553 0.053l-0.009 0-0.189 1.803c-0.055 0.49-0.654 0.927-1.254 0.927h-5.082zM15.95 24.883h-10.935c-0.654 0-1.204-0.435-1.254-0.927l-0.506-4.895-0.497 0.922 0.411 4.081c0.108 0.764 0.927 1.418 1.8 1.418h10.861z"></path>
<path d="M25.461 22.428c-2.867-0.014-5.187-2.342-5.187-5.211 0-2.878 2.333-5.211 5.211-5.211s5.211 2.333 5.211 5.211c0 1.44-0.584 2.744-1.528 3.687l-0 0c-0.953 0.941-2.262 1.522-3.707 1.524h-0zM25.461 12.449c-2.555 0.020-4.619 2.096-4.619 4.654 0 2.57 2.084 4.654 4.654 4.654s4.654-2.084 4.654-4.654c0-1.285-0.521-2.449-1.363-3.291v0c-0.858-0.837-2.031-1.356-3.324-1.363h-0.001z"></path>
<path d="M21.294 19.596c-0.174 0.073-0.323 0.17-0.452 0.288l0.001-0.001-4.735 4.542c-0.676 0.676-0.772 1.691-0.145 2.319 0.58 0.58 1.643 0.532 2.319-0.145l4.542-4.735c0.044-0.044 0.085-0.092 0.123-0.143l0.002-0.003c-0.901-0.454-1.533-1.227-1.657-2.123zM16.714 25.874c-0.014 0.002-0.031 0.003-0.047 0.003-0.242 0-0.439-0.196-0.439-0.439s0.196-0.439 0.439-0.439c0.017 0 0.033 0.001 0.049 0.003l-0.002-0c0.008-0.001 0.018-0.001 0.027-0.001 0.241 0 0.437 0.196 0.437 0.437s-0.196 0.437-0.437 0.437c-0.010 0-0.019-0-0.029-0.001l0.001 0zM20.117 22.433l-2.345 2.345c-0.070 0.070-0.166 0.113-0.273 0.113-0.213 0-0.386-0.173-0.386-0.386 0-0.107 0.043-0.203 0.113-0.273l2.345-2.345c0.070-0.070 0.166-0.113 0.273-0.113 0.213 0 0.386 0.173 0.386 0.386 0 0.107-0.043 0.203-0.113 0.273v0zM23.116 14.469v0c-0.060-0.056-0.097-0.136-0.097-0.225 0-0.113 0.061-0.211 0.151-0.265l0.001-0.001c0.646-0.474 1.457-0.758 2.334-0.758 1.088 0 2.074 0.437 2.791 1.145l-0-0c0.063 0.063 0.102 0.149 0.102 0.245 0 0.191-0.155 0.347-0.347 0.347-0.096 0-0.182-0.039-0.245-0.102v0c-0.597-0.589-1.417-0.953-2.323-0.953-0.723 0-1.392 0.232-1.936 0.626l0.010-0.007c-0.051 0.050-0.121 0.081-0.199 0.081-0.102 0-0.191-0.053-0.241-0.133l-0.001-0.001zM21.643 16.867c-0.065-0.072-0.106-0.167-0.108-0.271v-0c0.057-0.428 0.192-0.814 0.39-1.159l-0.008 0.015c0.053-0.117 0.169-0.197 0.304-0.197 0.184 0 0.332 0.149 0.332 0.332 0 0.049-0.011 0.095-0.030 0.137l0.001-0.002c-0.157 0.267-0.271 0.579-0.325 0.912l-0.002 0.015c-0.055 0.172-0.218 0.327-0.382 0.272-0.010 0.002-0.021 0.003-0.032 0.003-0.054 0-0.103-0.021-0.139-0.056l0 0zM18.281 18.877h-6.71c-0.11 0-0.2-0.089-0.2-0.2s0.089-0.2 0.2-0.2h6.71c0.11 0 0.2 0.089 0.2 0.2s-0.089 0.2-0.2 0.2v0z"></path>
</symbol>
<symbol id="icon-peoplenum" viewBox="0 0 32 32">
<title>peoplenum</title>
<path d="M16.271 17.53c1.897-1.308 3.125-3.469 3.125-5.917 0-3.957-3.208-7.164-7.164-7.164s-7.164 3.208-7.164 7.164c0 2.448 1.228 4.609 3.101 5.901l0.024 0.016c-4.915 1.421-8.19 5.438-8.19 10.589-0.004 0.032-0.006 0.070-0.006 0.108 0 0.505 0.409 0.914 0.914 0.914s0.914-0.409 0.914-0.914c0-0.038-0.002-0.076-0.007-0.112l0 0.004c0-5.497 4.282-9.337 10.423-9.337s10.423 3.84 10.423 9.337c-0.004 0.032-0.006 0.070-0.006 0.108 0 0.505 0.409 0.914 0.914 0.914s0.914-0.409 0.914-0.914c0-0.038-0.002-0.076-0.007-0.112l0 0.004c-0.018-5.151-3.293-9.168-8.208-10.589zM6.881 11.619c0-2.954 2.395-5.349 5.349-5.349s5.349 2.395 5.349 5.349c0 2.954-2.395 5.349-5.349 5.349v0c-2.952-0.004-5.344-2.396-5.349-5.348v-0z"></path>
<path d="M23.753 16.002c1.897-1.308 3.124-3.468 3.124-5.915 0-3.956-3.207-7.162-7.163-7.162-0 0-0.001 0-0.001 0h0c-1.573 0-2.832 0.38-4.023 1.243 0.73 0.298 1.357 0.636 1.942 1.033l-0.037-0.023c0.623-0.275 1.349-0.435 2.113-0.435 2.954 0 5.349 2.395 5.349 5.349s-2.395 5.349-5.349 5.349c-0.002 0-0.003 0-0.005 0h0l-0.048-0.011c-0.488 0.678-1.084 1.448-1.776 1.922 0.219 0 1.357-0.101 1.829-0.101 6.133 0 10.423 3.84 10.423 9.337-0.004 0.032-0.006 0.070-0.006 0.108 0 0.505 0.409 0.914 0.914 0.914s0.914-0.409 0.914-0.914c0-0.038-0.002-0.076-0.007-0.112l0 0.004c-0.004-5.146-3.279-9.163-8.196-10.584z"></path>
</symbol>
<symbol id="icon-resetpw" viewBox="0 0 32 32">
<title>resetpw</title>
<path d="M25.915 32.007h-19.915c-2 0-3.621-1.792-3.621-4.001v-10.002c0-2.209 1.62-4.001 3.621-4.001v-3.001c0-6.076 4.458-11.002 9.957-11.002s9.958 4.926 9.958 11.002v0.062h-0.011c0.001 0.012 0.001 0.026 0.001 0.040 0 0.494-0.4 0.894-0.894 0.894s-0.894-0.4-0.894-0.894c0-0.014 0-0.028 0.001-0.042l-0 0.002h-0.011v-0.062c0-4.972-3.648-9.002-8.148-9.002s-8.146 4.023-8.146 9.002v3.001h18.103c1.999 0 3.621 1.792 3.621 4.001v10.002c0 2.209-1.622 4.001-3.621 4.001v0zM27.725 18.004c0-1.097-0.81-2-1.81-2h-19.915c-1 0-1.81 0.896-1.81 2v10.002c0 1.097 0.81 2 1.81 2h19.915c0.998 0 1.81-0.896 1.81-2v-10.002zM16.861 23.802v3.204c0.006 0.039 0.009 0.083 0.009 0.129 0 0.505-0.409 0.914-0.914 0.914s-0.914-0.409-0.914-0.914c0-0.046 0.003-0.090 0.010-0.134l-0.001 0.005v-3.204c-1.073-0.463-1.811-1.512-1.811-2.733 0-0.023 0-0.045 0.001-0.068l-0 0.003c0-1.657 1.216-3.001 2.715-3.001s2.715 1.344 2.715 3.001c0 0.019 0.001 0.042 0.001 0.065 0 1.221-0.738 2.27-1.792 2.726l-0.019 0.007zM15.956 20.005c-0.030-0.003-0.065-0.005-0.101-0.005-0.555 0-1.006 0.45-1.006 1.006s0.45 1.006 1.006 1.006c0.555 0 1.006-0.45 1.006-1.006 0-0 0-0 0-0v0c0.001-0.014 0.001-0.029 0.001-0.045 0-0.511-0.4-0.928-0.904-0.955l-0.002-0z"></path>
</symbol>
<symbol id="icon-right-arrow" viewBox="0 0 32 32">
<title>right-arrow</title>
<path stroke-width="2.6806" stroke-miterlimit="4" stroke-linecap="round" stroke-linejoin="round" d="M8.796 1.34l14.408 14.576-14.408 14.743"></path>
</symbol>
<symbol id="icon-save" viewBox="0 0 32 32">
<title>save</title>
<path d="M18.699 5.704h-2.81v-3.033c0-0.007 0-0.014 0-0.022 0-1.461-1.183-2.646-2.643-2.649h-4.842c-1.463 0.013-2.643 1.201-2.643 2.666 0 0.002 0 0.004 0 0.006v-0 3.033h-2.838c-1.469 0.043-2.644 1.245-2.644 2.72 0 0.012 0 0.024 0 0.036l-0-0.002v18.81c-0.001 0.021-0.001 0.045-0.001 0.070 0 1.469 1.179 2.662 2.642 2.685l0.002 0h1.558v1.002c-0 0.006-0 0.013-0 0.020 0 0.484 0.382 0.878 0.861 0.898l0.002 0c0.001 0 0.001 0 0.002 0 0.476 0 0.863-0.386 0.863-0.863 0-0.020-0.001-0.039-0.002-0.058l0 0.003v-1.002h9.155v1.002c-0 0.006-0 0.013-0 0.020 0 0.484 0.382 0.878 0.861 0.898l0.002 0c0.479-0.009 0.863-0.399 0.863-0.879 0-0.014-0-0.027-0.001-0.041l0 0.002v-1.002h1.558c1.469-0.043 2.644-1.245 2.644-2.72 0-0.012-0-0.024-0-0.036l0 0.002v-18.81c0.002-0.034 0.003-0.074 0.003-0.115 0-1.441-1.154-2.612-2.588-2.64l-0.003-0zM7.513 2.699c0.015-0.464 0.396-0.835 0.862-0.835 0 0 0 0 0 0h4.842c0.008-0 0.018-0 0.028-0 0.461 0 0.835 0.374 0.835 0.835 0 0 0 0 0 0.001v-0 3.033h-6.595v-3.033zM2.922 7.541h15.777c0.481 0.020 0.863 0.414 0.863 0.898 0 0.007-0 0.014-0 0.021l0-0.001v2.477h-17.53v-2.504c0.003-0.49 0.4-0.887 0.89-0.89h0zM13.69 12.8v15.416h-5.343v-15.416zM2.031 27.297v-14.47h4.563v15.416h-3.701c-0.482-0.053-0.855-0.455-0.863-0.945v-0.001zM18.699 28.216h-3.256v-15.388h4.118v14.47c0.001 0.017 0.002 0.036 0.002 0.056 0 0.476-0.386 0.863-0.863 0.863-0.001 0-0.001 0-0.002 0h0zM29.913 12.772h-0.278v-1.252c0-1.197-1.057-2.143-2.365-2.143s-2.365 0.974-2.365 2.143v1.252h-0.306c-0.974 0.026-1.753 0.822-1.753 1.8 0 0.013 0 0.026 0 0.039l-0-0.002v13.607c-0 0.016-0.001 0.034-0.001 0.053 0 0.975 0.782 1.767 1.752 1.783l0.002 0h5.343c0.975-0.030 1.754-0.828 1.754-1.808 0-0.020-0-0.040-0.001-0.059l0 0.003v-13.607c0-0.002 0-0.005 0-0.008 0-0.987-0.795-1.789-1.78-1.8h-0.001zM26.685 11.52c0-0.083 0.223-0.306 0.612-0.306s0.612 0.223 0.612 0.306v1.252h-1.197v-1.252zM24.626 14.609h1.781v13.607h-1.781zM29.913 28.216h-1.781v-13.607h1.781z"></path>
</symbol>
<symbol id="icon-search" viewBox="0 0 32 32">
<title>search</title>
<path stroke-width="2.0305" stroke-miterlimit="4" stroke-linecap="round" stroke-linejoin="round" d="M27.736 14.376c0 7.379-5.982 13.36-13.36 13.36s-13.36-5.982-13.36-13.36c0-7.379 5.982-13.36 13.36-13.36v0c0.026-0 0.057-0 0.088-0 7.331 0 13.273 5.943 13.273 13.273 0 0.031-0 0.062-0 0.092l0-0.005z"></path>
<path stroke-width="2.0305" stroke-miterlimit="4" stroke-linecap="round" stroke-linejoin="round" d="M30.985 30.985l-5.888-5.076"></path>
</symbol>
<symbol id="icon-set" viewBox="0 0 32 32">
<title>set</title>
<path d="M20.769 31.091v0c-0.004 0-0.009 0-0.014 0-0.589 0-1.12-0.247-1.495-0.643l-0.001-0.001c-0.497-0.549-2.072-1.962-3.363-1.962s-2.88 1.426-3.339 1.925c-0.376 0.391-0.903 0.635-1.488 0.635-0.005 0-0.011-0-0.016-0h0.001c-0.004 0-0.009 0-0.013 0-0.274 0-0.534-0.058-0.769-0.162l0.012 0.005-0.042-0.018-3.919-2.202-0.038-0.027c-0.477-0.346-0.784-0.901-0.784-1.529 0-0.269 0.056-0.525 0.158-0.756l-0.005 0.012c0.203-0.467 0.335-1.009 0.365-1.577l0-0.012c-0.003-2.293-1.861-4.151-4.154-4.154h-0.165c-0.656 0-1.19-0.583-1.362-1.485-0.181-0.923-0.302-2.002-0.334-3.103l-0.001-0.029c0.033-1.13 0.153-2.209 0.355-3.259l-0.020 0.127c0.174-0.914 0.719-1.501 1.386-1.485h0.139c2.289-0.004 4.144-1.857 4.153-4.145v-0.001c-0.030-0.581-0.162-1.123-0.377-1.621l0.012 0.030c-0.097-0.22-0.154-0.476-0.154-0.745 0-0.627 0.307-1.182 0.78-1.522l0.006-0.004 0.040-0.027 4.145-2.273 0.044-0.018c0.22-0.095 0.476-0.15 0.744-0.15 0.005 0 0.010 0 0.015 0h-0.001c0.005-0 0.011-0 0.017-0 0.581 0 1.107 0.236 1.488 0.618l0 0c0.49 0.512 2.037 1.845 3.291 1.845s2.779-1.307 3.268-1.81c0.379-0.375 0.901-0.607 1.477-0.607 0.005 0 0.010 0 0.016 0h-0.001c0.004-0 0.009-0 0.013-0 0.274 0 0.535 0.057 0.771 0.16l-0.012-0.005 0.042 0.018 3.995 2.22 0.040 0.027c0.478 0.345 0.786 0.901 0.786 1.529 0 0.269-0.056 0.525-0.158 0.756l0.005-0.012c-0.203 0.467-0.335 1.009-0.365 1.577l-0 0.012c0.003 2.293 1.861 4.151 4.154 4.154h0.139c0.667-0.015 1.214 0.57 1.386 1.485 0.181 0.923 0.302 2.002 0.334 3.103l0.001 0.029c-0.033 1.13-0.153 2.209-0.355 3.259l0.020-0.126c-0.172 0.914-0.719 1.498-1.386 1.485h-0.139c-2.293 0.003-4.151 1.861-4.154 4.154v0c0.031 0.581 0.162 1.123 0.377 1.621l-0.012-0.030c0.095 0.217 0.151 0.471 0.151 0.737 0 0.631-0.311 1.189-0.789 1.53l-0.006 0.004-0.040 0.027-4.063 2.245-0.042 0.018c-0.219 0.096-0.475 0.152-0.744 0.152-0.002 0-0.004 0-0.006 0h0zM20.646 29.177c0.035 0.019 0.078 0.031 0.122 0.031h0l3.798-2.097c-0.298-0.684-0.484-1.479-0.51-2.314l-0-0.010c0.001-3.223 2.525-5.857 5.704-6.034l0.016-0.001c0.157-0.806 0.262-1.75 0.294-2.714l0.001-0.029c-0.032-0.992-0.138-1.937-0.312-2.857l0.018 0.114c-3.195-0.178-5.719-2.811-5.72-6.034v-0c0.028-0.841 0.213-1.632 0.526-2.355l-0.016 0.042-3.73-2.074h-0.016c0 0-0 0-0 0-0.052 0-0.101 0.014-0.144 0.037l0.002-0.001c-0.417 0.415-0.868 0.796-1.35 1.137l-0.033 0.022c-1.15 0.81-2.238 1.221-3.233 1.221s-2.101-0.421-3.26-1.245c-0.516-0.37-0.97-0.758-1.389-1.182l-0.001-0.001c-0.041-0.023-0.091-0.037-0.144-0.037-0 0-0.001 0-0.001 0h-0.013l-3.877 2.125c0.298 0.683 0.483 1.478 0.51 2.312l0 0.010c-0.001 3.223-2.525 5.857-5.704 6.034l-0.016 0.001c-0.157 0.806-0.262 1.75-0.294 2.714l-0.001 0.029c0.032 0.992 0.138 1.937 0.312 2.857l-0.018-0.114c3.195 0.178 5.719 2.811 5.72 6.034v0c-0.028 0.841-0.213 1.632-0.526 2.355l0.016-0.042 3.657 2.046c0.045-0 0.087-0.012 0.124-0.032l-0.001 0.001c0.425-0.443 0.883-0.846 1.373-1.208l0.029-0.021c1.174-0.861 2.289-1.296 3.315-1.296s2.16 0.444 3.341 1.322c0.522 0.389 0.982 0.8 1.405 1.247l0.005 0.005zM15.909 21.537c-3.056 0-5.533-2.477-5.533-5.533s2.477-5.533 5.533-5.533c3.056 0 5.533 2.477 5.533 5.533v0c-0.003 3.055-2.479 5.53-5.533 5.533h-0zM15.909 12.352c-2.020 0-3.657 1.637-3.657 3.657s1.637 3.657 3.657 3.657c2.020 0 3.657-1.637 3.657-3.657v0c0-0.003 0-0.006 0-0.009 0-2.020-1.637-3.657-3.657-3.657 0 0 0 0 0 0v0z"></path>
</symbol>
<symbol id="icon-success" viewBox="0 0 32 32">
<title>success</title>
<path d="M16 32c-7.573-0.002-13.917-5.265-15.574-12.333l-0.021-0.108c-1.952-8.49 3.357-17.082 11.818-19.094 4.080-0.971 7.962-0.408 11.634 1.616 0.48 0.264 0.682 0.72 0.539 1.195-0.119 0.413-0.493 0.709-0.936 0.709-0.030 0-0.060-0.001-0.090-0.004l0.004 0c-0.202-0.029-0.384-0.095-0.546-0.191l0.007 0.004c-1.341-0.773-2.905-1.338-4.57-1.603l-0.078-0.010c-3.757-0.557-7.218 0.219-10.309 2.44s-4.976 5.184-5.637 8.902c-0.144 0.755-0.227 1.623-0.227 2.51 0 7.726 6.263 13.989 13.989 13.989 6.493 0 11.953-4.424 13.53-10.423l0.022-0.097c0.925-3.603 0.453-7.054-1.338-10.318-0.126-0.184-0.201-0.412-0.201-0.657 0-0.017 0-0.033 0.001-0.049l-0 0.002c0.039-0.44 0.359-0.795 0.777-0.885l0.007-0.001c0.068-0.017 0.145-0.026 0.225-0.026 0.372 0 0.696 0.207 0.862 0.512l0.003 0.005c0.429 0.729 0.828 1.578 1.148 2.465l0.034 0.108c0.584 1.593 0.921 3.432 0.921 5.35 0 7.43-5.064 13.677-11.93 15.478l-0.111 0.025c-1.17 0.311-2.513 0.49-3.898 0.49-0.019 0-0.038-0-0.057-0h0.003zM14.003 18.661c0.056-0.093 0.114-0.173 0.176-0.248l-0.003 0.004q3.52-3.52 7.030-7.040c0.283-0.283 0.6-0.437 1.005-0.346 0.45 0.102 0.781 0.499 0.781 0.973 0 0.246-0.089 0.471-0.236 0.644l0.001-0.001c-0.050 0.058-0.104 0.11-0.16 0.16l-7.779 7.79c-0.538 0.538-1.086 0.539-1.622 0q-1.936-1.933-3.87-3.867c-0.187-0.182-0.304-0.436-0.304-0.718 0-0.552 0.448-1 1-1 0.29 0 0.551 0.123 0.733 0.32l0.001 0.001q1.538 1.541 3.077 3.077c0.058 0.072 0.114 0.153 0.163 0.237l0.005 0.009z"></path>
</symbol>
<symbol id="icon-tel" viewBox="0 0 32 32">
<title>tel</title>
<path fill="#28aae6" style="fill: var(--color5, #28aae6)" d="M28.057 23.18c-0.535-0.474-1.060-0.969-1.553-1.434-1.662-1.566-2.429-2.259-3.184-2.264-0.973 0-1.642 0.781-2.356 1.617-0.951 1.115-1.642 1.825-2.602 1.631-1.095-0.23-3.649-2.449-5.981-4.957-1.701-1.883-2.978-3.638-3.078-4.458-0.122-0.923 0.692-1.516 1.945-2.314 0.94-0.598 1.825-1.162 1.91-2.084 0.064-0.715-2.992-4.273-3.438-4.822-3.257-4.014-4.264-4.074-4.594-4.093h-0.080c-0.963 0-2.221 0.942-3.204 2.401-1.21 1.794-3.605 6.842 0.297 14.922 1.001 2.050 2.151 3.817 3.487 5.424l-0.035-0.043c0.058 0.069 2.598 2.673 2.598 2.673 1.556 1.403 3.301 2.651 5.177 3.691l0.144 0.073c8.105 4.434 13.61 2.631 15.602 1.642 1.618-0.799 2.719-1.903 2.808-2.817v-0.073c0.013-0.316 0.047-1.277-3.865-4.726zM28.135 29.591c-1.755 0.796-6.622 2.217-13.847-1.739-2.925-1.615-5.403-3.657-7.449-6.076l-0.032-0.038c-1.223-1.463-2.303-3.116-3.178-4.889l-0.065-0.145c-3.48-7.204-1.544-11.678-0.547-13.27 0.889-1.421 1.825-1.929 1.965-1.952 0.334 0.104 1.582 1.149 3.505 3.521 0.456 0.564 2.961 3.454 3.102 3.832-0.1 0.226-0.816 0.681-1.21 0.931-1.217 0.774-2.883 1.825-2.629 3.737 0.126 0.958 1.443 2.887 3.231 4.945l2.16 2.224c1.992 1.883 3.89 3.306 4.884 3.514 1.969 0.414 3.237-1.067 4.149-2.14 0.297-0.35 0.841-0.987 1.084-1.058 0.385 0.173 1.392 1.124 2.138 1.825 0.504 0.474 1.042 0.982 1.589 1.46 2.308 2.036 3.284 3.315 3.368 3.649-0.037 0.135-0.653 0.969-2.226 1.68z"></path>
</symbol>
<symbol id="icon-tip" viewBox="0 0 32 32">
<title>tip</title>
<path d="M16 0c-8.837 0-16 7.163-16 16s7.163 16 16 16c8.837 0 16-7.163 16-16v0c-0.001-8.836-7.164-15.999-16-16h-0zM16 29.928c-7.692 0-13.928-6.236-13.928-13.928s6.236-13.928 13.928-13.928c7.692 0 13.928 6.236 13.928 13.928v0c0 7.692-6.236 13.928-13.928 13.928v0z"></path>
<path d="M16 21.932c0.63-0.002 1.141-0.512 1.143-1.143v-13.714c0-0.631-0.512-1.143-1.143-1.143s-1.143 0.512-1.143 1.143v0 13.714c0.002 0.63 0.512 1.141 1.143 1.143h0z"></path>
<path d="M14.572 24.64c0 0.789 0.639 1.428 1.428 1.428s1.428-0.639 1.428-1.428c0-0.789-0.639-1.428-1.428-1.428v0c-0.789 0-1.428 0.639-1.428 1.428v0z"></path>
</symbol>
<symbol id="icon-Wi-Fi" viewBox="0 0 32 32">
<title>Wi-Fi</title>
<path fill="#0091ea" style="fill: var(--color6, #0091ea)" d="M14.408 29.058c-0 0.016-0.001 0.034-0.001 0.053 0 1.249 1.012 2.261 2.261 2.261s2.261-1.012 2.261-2.261c0-1.248-1.012-2.26-2.26-2.261h-0c-0.006-0-0.014-0-0.021-0-1.226 0-2.222 0.985-2.24 2.206l-0 0.002z"></path>
<path fill="#0091ea" style="fill: var(--color6, #0091ea)" d="M21.222 19.632c-1.549-0.781-3.376-1.239-5.31-1.239-1.771 0-3.453 0.384-4.966 1.073l0.075-0.031c-0.389 0.172-0.656 0.555-0.656 1 0 0.159 0.034 0.31 0.095 0.446l-0.003-0.007 0.013 0.027c0.19 0.383 0.578 0.641 1.027 0.641 0.171 0 0.334-0.038 0.48-0.105l-0.007 0.003c1.16-0.53 2.516-0.838 3.944-0.838 1.561 0 3.035 0.369 4.341 1.024l-0.056-0.025c0.147 0.076 0.32 0.12 0.504 0.12 0.003 0 0.005 0 0.008-0h-0c0.002 0 0.004 0 0.006 0 0.431 0 0.806-0.24 0.999-0.594l0.003-0.006c0.078-0.146 0.123-0.319 0.123-0.502 0-0.416-0.234-0.778-0.578-0.96l-0.006-0.003-0.034-0.016zM27.322 12.21c-3.301-1.675-7.197-2.656-11.322-2.656-0.029 0-0.057 0-0.086 0h0.004c-0.003 0-0.007 0-0.010 0-4.195 0-8.156 1.001-11.657 2.778l0.147-0.068c-0.366 0.182-0.613 0.553-0.613 0.982 0 0.174 0.041 0.339 0.113 0.485l-0.003-0.006 0.014 0.027c0.195 0.36 0.569 0.6 1 0.6 0.001 0 0.002 0 0.004 0h-0c0.001 0 0.001 0 0.002 0 0.191 0 0.371-0.045 0.531-0.125l-0.007 0.003c3.055-1.556 6.662-2.468 10.482-2.468 3.781 0 7.353 0.893 10.517 2.48l-0.135-0.062c0.149 0.076 0.324 0.12 0.51 0.12 0.433 0 0.809-0.24 1.003-0.594l0.003-0.006c0.078-0.146 0.123-0.32 0.123-0.504 0-0.419-0.236-0.782-0.581-0.965l-0.006-0.003-0.030-0.016zM31.381 4.317c-4.475-2.268-9.756-3.597-15.348-3.597-0.041 0-0.082 0-0.122 0l0.006-0c-0.030-0-0.065-0-0.1-0-5.53 0-10.757 1.3-15.391 3.611l0.2-0.090c-0.371 0.18-0.622 0.553-0.622 0.985 0 0.167 0.038 0.326 0.105 0.468l-0.003-0.007 0.014 0.029c0.195 0.366 0.575 0.611 1.012 0.611 0.183 0 0.357-0.043 0.51-0.12l-0.007 0.003c4.139-2.069 9.017-3.28 14.178-3.28 0.037 0 0.073 0 0.109 0h-0.006c0.032-0 0.069-0 0.106-0 5.223 0 10.157 1.241 14.522 3.445l-0.185-0.085c0.148 0.075 0.324 0.119 0.509 0.119 0.433 0 0.809-0.24 1.005-0.593l0.003-0.006c0.075-0.145 0.12-0.316 0.12-0.497 0-0.424-0.241-0.792-0.593-0.973l-0.006-0.003-0.024-0.013z"></path>
</symbol>
<symbol id="icon-write" viewBox="0 0 32 32">
<title>write</title>
<path d="M3.506 22.71c1.578 1.807 6.261 0.603 8.176 0.018-1.046-0.691-1.618-1.423-1.918-2.034-0.454-0.914-0.689-2.878 1.046-2.661 7.461 1.035 9.189-2.121 11.051-5.557 1.532-2.811 3.136-5.779 7.198-7.371-3.893-6.697-15.072 0.839-17.005 5.46-0.158 0.514-0.624 0.883-1.178 0.892h-0.001c-0.691-0.020-1.243-0.585-1.243-1.28 0-0 0-0 0-0.001v0c0.124-1.595 0.36-3.061 0.707-4.484l-0.039 0.19c-0.837 0.803-1.549 1.726-2.111 2.744l-0.030 0.059c-1.015 1.862-1.479 4.003-0.956 5.936v0c0.029 0.102 0.045 0.219 0.045 0.34 0 0.44-0.218 0.83-0.551 1.067l-0.004 0.003c-0.188 0.128-0.42 0.205-0.669 0.205-0.429 0-0.806-0.226-1.017-0.565l-0.003-0.005c-0.549-0.878-1.161-1.724-1.618-2.661-1.046 2.959-1.439 6.881 0.124 9.703zM10.409 31.996h12.759c0.413-0.005 0.746-0.341 0.746-0.755 0-0.008-0-0.017-0-0.025l0 0.001c0.001-0.011 0.001-0.024 0.001-0.037 0-0.404-0.328-0.731-0.731-0.731-0.005 0-0.011 0-0.016 0h-12.756c-0.406 0.009-0.732 0.34-0.732 0.748 0 0.005 0 0.009 0 0.014v-0.001c-0 0.006-0 0.014-0 0.021 0 0.411 0.324 0.747 0.73 0.765l0.002 0zM1.417 24.089c-2.476-4.422-1.463-10.972 1.147-15.045 0.22-0.334 0.593-0.552 1.017-0.552 0.582 0 1.067 0.409 1.185 0.956l0.001 0.008h0.015c0.046 0.232 0.104 0.45 0.157 0.66 0.294-1.033 0.667-1.931 1.131-2.772l-0.034 0.067c1.401-2.593 3.657-4.744 6.089-5.722 0.128-0.049 0.276-0.078 0.43-0.078 0.528 0 0.978 0.333 1.152 0.801l0.003 0.009c0.046 0.134 0.073 0.289 0.073 0.45 0 0.194-0.039 0.38-0.109 0.549l0.004-0.009c-0.243 0.569-0.454 1.143-0.636 1.704 1.814-1.709 3.946-3.106 6.295-4.089l0.139-0.052c4.842-1.915 10.372-1.339 12.435 4.44 0.049 0.134 0.078 0.288 0.078 0.45 0 0.544-0.325 1.013-0.792 1.222l-0.008 0.003-0.112 0.037c-4.118 1.132-5.651 3.954-7.093 6.622-2.028 3.725-3.928 7.19-10.639 7.068 0.491 0.241 1.087 0.48 1.701 0.677l0.098 0.027c0.518 0.176 0.884 0.659 0.884 1.227 0 0.139-0.022 0.272-0.062 0.397l0.003-0.009c-0.095 0.333-0.316 0.602-0.608 0.758l-0.007 0.003c-3.096 1.851-8.518 3.147-12.011 1.701-0.479 0.731-1.236 2.324-0.708 4.839v0.015h3.385c0 0 0 0 0.001 0 0.404 0 0.731 0.328 0.731 0.731 0 0.010-0 0.021-0.001 0.031l0-0.001c0 0.009 0.001 0.020 0.001 0.031 0 0.407-0.326 0.739-0.731 0.748h-4.446c-0.028 0.002-0.061 0.003-0.094 0.003-0.618 0-1.134-0.438-1.254-1.021l-0.001-0.008c-0.671-3.346 0.4-5.707 1.192-6.879z"></path>
</symbol>
</defs>
</svg>
